# xmcd
# 
# Track frame offsets:
#     150
#     25638
#     53300
#     73450
#     96321
#     123220
#     138669
#     168517
#     190792
#     214518
# 
# Disc length: 3203
# 
# Revision: 0
# Processed by: cddbd v1.5.2PL0 Copyright (c) Steve Scherf et al.
# Submitted via: fre:ac v1.0.17
# 
DISCID=880c810a
DTITLE=Gerry Rafferty - City To City
DYEAR=0
DGENRE=Blues
TTITLE0=The Ark
TTITLE1=Baker Street
TTITLE2=Right Down The Line
TTITLE3=City To City
TTITLE4=Stealin' Time
TTITLE5=Mattie's Rag
TTITLE6=Whatever's Written In Your Heart
TTITLE7=Home And Dry
TTITLE8=Island
TTITLE9=Waiting For The Day
EXTD=
EXTT0=
EXTT1=
EXTT2=
EXTT3=
EXTT4=
EXTT5=
EXTT6=
EXTT7=
EXTT8=
EXTT9=
PLAYORDER=
